<?xml version="1.0" encoding="UTF-8"?>
<!DOCTYPE svg PUBLIC "-//W3C//DTD SVG 1.1//EN" "http://www.w3.org/Graphics/SVG/1.1/DTD/svg11.dtd">
<!-- Creator: CorelDRAW 2017 -->
<svg xmlns="http://www.w3.org/2000/svg" xml:space="preserve" width="50px" height="100px" version="1.1" shape-rendering="geometricPrecision" text-rendering="geometricPrecision" image-rendering="optimizeQuality" fill-rule="evenodd" clip-rule="evenodd"
viewBox="0 0 2.91 5.81"
 xmlns:xlink="http://www.w3.org/1999/xlink">
 <g id="Layer_x0020_1">
  <metadata id="CorelCorpID_0Corel-Layer"/>
  <path fill="#008DFB" d="M2.62 0.58l-0.59 0 0 -0.58 -1.16 0 0 0.58 -0.58 0c-0.16,0 -0.29,0.13 -0.29,0.29l0 4.65c0,0.16 0.13,0.29 0.29,0.29l2.33 0c0.16,0 0.29,-0.13 0.29,-0.29l0 -4.65c0,-0.16 -0.13,-0.29 -0.29,-0.29zm-0.29 2.91l-0.59 0 0 0.58 -0.58 0 0 -0.58 -0.58 0 0 -0.58 0.58 0 0 -0.58 0.58 0 0 0.58 0.59 0 0 0.58z"/>
 </g>
</svg>
