<?xml version="1.0" encoding="UTF-8"?>
<!DOCTYPE svg PUBLIC "-//W3C//DTD SVG 1.1//EN" "http://www.w3.org/Graphics/SVG/1.1/DTD/svg11.dtd">
<!-- Creator: CorelDRAW 2017 -->
<svg xmlns="http://www.w3.org/2000/svg" xml:space="preserve" width="100px" height="100px" version="1.1" shape-rendering="geometricPrecision" text-rendering="geometricPrecision" image-rendering="optimizeQuality" fill-rule="evenodd" clip-rule="evenodd"
viewBox="0 0 43.84 43.84"
 xmlns:xlink="http://www.w3.org/1999/xlink">
 <g id="Layer_x0020_1">
  <metadata id="CorelCorpID_0Corel-Layer"/>
  <path fill="#008DFB" d="M21.9 0c-12.1,0 -21.9,9.82 -21.9,21.92 0,12.1 9.8,21.92 21.9,21.92 12.12,0 21.94,-9.82 21.94,-21.92 0,-12.1 -9.82,-21.92 -21.94,-21.92zm15.19 13.15l-6.46 0c-0.69,-2.71 -1.71,-5.34 -3.03,-7.8 3.99,1.37 7.37,4.15 9.49,7.8l0 0zm-15.17 -8.68c1.82,2.63 3.25,5.55 4.19,8.68l-8.38 0c0.95,-3.13 2.37,-6.05 4.19,-8.68zm-16.97 21.84c-0.35,-1.41 -0.57,-2.88 -0.57,-4.39 0,-1.51 0.22,-2.98 0.57,-4.38l7.41 0c-0.17,1.44 -0.3,2.89 -0.3,4.38 0,1.49 0.13,2.94 0.3,4.39l-7.41 0zm1.8 4.38l6.47 0c0.7,2.74 1.71,5.37 3.02,7.8 -4,-1.37 -7.37,-4.14 -9.49,-7.8l0 0zm-0.37 -17.52c1.9,-3.38 6.47,-6.95 10.57,-7.93 -1.34,2.51 -2.65,5.11 -3.5,7.89l-7.07 0.04zm15.54 26.2c-1.82,-2.63 -3.24,-5.54 -4.19,-8.68l8.38 0c-0.94,3.14 -2.37,6.05 -4.19,8.68zm5.13 -13.06l-10.26 0c-0.19,-1.45 -0.35,-2.9 -0.35,-4.39 0,-1.49 0.16,-2.96 0.35,-4.38l10.26 0c0.2,1.42 0.35,2.89 0.35,4.38 0,1.49 -0.15,2.94 -0.35,4.39zm0.55 12.19c1.32,-2.44 2.32,-5.07 3.03,-7.81l6.46 0c-2.12,3.65 -5.5,6.43 -9.49,7.8l0 0.01zm3.88 -12.19c0.18,-1.45 0.31,-2.9 0.31,-4.39 0,-1.49 -0.13,-2.94 -0.31,-4.38l7.41 0c0.35,1.4 0.57,2.87 0.57,4.38 0,1.51 -0.22,2.98 -0.57,4.39l-7.41 0z"/>
 </g>
</svg>
